<svg width="24" height="24" viewBox="0 0 24 24" fill="none" xmlns="http://www.w3.org/2000/svg">
<path d="M17.2916 22.6538H17.7285V22.2171C17.7276 22.1961 17.7272 22.175 17.7272 22.1538L17.2916 22.6538ZM17.2916 22.6538C17.2551 22.5149 17.2339 22.3717 17.2285 22.2271C17.2276 22.2027 17.2272 22.1783 17.2272 22.1538L17.2916 22.6538ZM6.3928 14.3449L5.92448 14.4756C5.11435 14.7017 4.39031 15.2109 3.86998 15.9314C3.34931 16.6524 3.06403 17.5422 3.06384 18.4615L6.3928 14.3449ZM6.3928 14.3449L6.27524 13.8731M6.3928 14.3449L6.27524 13.8731M6.27524 13.8731L3.33354 2.06773C3.33353 2.06767 3.33351 2.06762 3.3335 2.06756C3.33349 2.06753 3.33348 2.0675 3.33347 2.06746C3.28418 1.86941 3.17364 1.68809 3.01216 1.55532C2.85 1.42198 2.6462 1.3461 2.43213 1.34615C2.43204 1.34615 2.43196 1.34615 2.43187 1.34615L0.848006 1.34615C0.766304 1.34216 0.681844 1.30492 0.614303 1.23059C0.544226 1.15346 0.5 1.04359 0.5 0.923077C0.5 0.80256 0.544226 0.692691 0.614303 0.615565C0.681843 0.54123 0.766303 0.503996 0.848005 0.5H2.43213L2.43233 0.5C2.78842 0.499862 3.13887 0.625397 3.42887 0.863766C3.71954 1.10269 3.93372 1.44252 4.03124 1.83404L4.03134 1.83446L4.29816 2.90176L4.3813 3.23434M6.27524 13.8731L4.3813 3.23434M3.74379 18.0388L3.96088 17.3819C4.16991 16.7494 4.55894 16.1961 5.08015 15.8018C5.60187 15.4072 6.22941 15.1925 6.87634 15.1927C6.8764 15.1927 6.87645 15.1927 6.8765 15.1927H19.7758C19.8365 15.1927 19.8985 15.1746 19.9551 15.1368C20.0121 15.0987 20.0625 15.0411 20.0963 14.967L3.74379 18.0388ZM3.74379 18.0388H4.43563M3.74379 18.0388H4.43563M4.43563 18.0388H21.531C21.6127 18.0428 21.6972 18.0801 21.7647 18.1544C21.8348 18.2315 21.879 18.3414 21.879 18.4619C21.879 18.5824 21.8348 18.6923 21.7647 18.7694C21.6972 18.8437 21.6127 18.881 21.531 18.885H3.42675C3.34186 18.885 3.25299 18.8492 3.18191 18.7731C3.10977 18.6959 3.06387 18.5844 3.06384 18.4616L4.43563 18.0388ZM4.3813 3.23434L4.7215 3.27667M4.3813 3.23434L4.7215 3.27667M4.7215 3.27667L23.2457 5.58158L4.7215 3.27667ZM3.06384 22.1538C3.06384 21.8804 3.13977 21.6155 3.2787 21.393C3.41744 21.1708 3.6112 21.0029 3.83142 20.9053C4.05113 20.8079 4.29071 20.7831 4.52144 20.8322C4.7525 20.8814 4.96971 21.0038 5.14351 21.1898C5.31765 21.3762 5.43967 21.6176 5.48939 21.8851C5.53912 22.1526 5.51335 22.4297 5.41651 22.6799C5.31974 22.9299 5.15794 23.1382 4.95659 23.2821C4.75572 23.4258 4.52343 23.5 4.28898 23.5C3.97541 23.5 3.66723 23.367 3.43445 23.1179C3.20059 22.8676 3.06384 22.5214 3.06384 22.1538Z" stroke="#FFC700"/>
</svg>
